<?xml version="1.0" ?><!DOCTYPE svg  PUBLIC '-//W3C//DTD SVG 1.1//EN'  'http://www.w3.org/Graphics/SVG/1.1/DTD/svg11.dtd'><svg enable-background="new 0 0 500 500" height="500px" id="Capa_1" version="1.1" viewBox="0 0 500 500" width="500px" xml:space="preserve" xmlns="http://www.w3.org/2000/svg" xmlns:xlink="http://www.w3.org/1999/xlink"><path d="M412.226,87.133L88.29,412.367c41.458,40.974,98.435,66.279,161.33,66.279  c126.765,0,229.527-102.764,229.527-229.527C479.146,185.895,453.58,128.644,412.226,87.133z" fill="#2D2D2D"/><path d="M249.619,19.592c-126.765,0-229.527,102.762-229.527,229.527c0,63.87,26.096,121.639,68.197,163.248L412.226,87.133  C370.665,45.414,313.159,19.592,249.619,19.592z"/><circle cx="249.062" cy="248.562" fill="none" r="243.438" stroke="#000000" stroke-miterlimit="10" stroke-width="5"/><path clip-rule="evenodd" d="M222.185,312.531c-2.096,5.278-4.053,10.445-6.232,15.519  c-0.516,1.2-1.58,2.526-2.729,3.038c-13.647,6.067-27.414,2.002-35.668-10.581c-4.782-7.289-10.439-13.247-19.542-14.716  c-0.871-0.141-1.833-0.473-2.616-0.246c-1.629,0.47-3.167,1.255-4.742,1.909c0.842,1.44,1.333,3.416,2.582,4.234  c8.674,5.676,13.647,13.94,17.89,23.139c5.34,11.585,15.393,16.797,27.792,17.408c5.118,0.252,10.284-0.457,15.979-0.76  c0,7.876,0.425,15.929-0.172,23.903c-0.319,4.254-4.96,5.821-9.957,4.101c-16.273-5.605-31.056-13.946-43.892-25.375  c-29.377-26.156-44.846-59.019-45.838-98.376c-1.394-55.251,33.405-107.195,85.296-126.319  c47.664-17.566,92.21-10.512,131.98,20.959c26.656,21.095,42.626,49.243,47.452,83.113c8.732,61.279-21.923,116.683-78.375,142.24  c-2.955,1.337-6.017,2.459-9.078,3.544c-6.999,2.482-11.056-0.28-11.084-7.638c-0.038-9.917,0.016-19.835,0.125-29.752  c0.118-10.502-0.577-20.751-8.536-29.235c5.94-1.283,11.428-2.291,16.822-3.665c26.081-6.64,40.416-23.594,42.951-50.485  c1.123-11.919,1.106-23.668-4.374-34.734c-0.982-1.983-1.734-4.321-3.285-5.737c-5.055-4.618-4.839-9.75-3.427-15.937  c1.694-7.42,0.338-14.935-1.794-22.32c-1.111-3.851-3.204-5.382-6.633-4.23c-7.788,2.616-15.812,4.943-23.01,8.764  c-5.728,3.041-10.557,4.643-17.266,3.108c-18.294-4.184-36.71-3.338-54.989,1.017c-1.726,0.411-3.955-0.289-5.684-1.065  c-7.922-3.557-15.533-7.932-23.673-10.852c-8.752-3.14-10.629-1.601-12.714,7.298c-1.927,8.223-1.702,16.376,0.366,24.578  c0.383,1.519-0.194,3.931-1.253,5.063c-18.577,19.852-12.407,62.366,1.967,78.235c7.278,8.037,16.006,13.535,26.353,16.401  C209.709,309.89,216.381,311.189,222.185,312.531z" fill="#FFFFFF" fill-rule="evenodd"/></svg>