<?xml version="1.0" ?><!DOCTYPE svg  PUBLIC '-//W3C//DTD SVG 1.1//EN'  'http://www.w3.org/Graphics/SVG/1.1/DTD/svg11.dtd'><svg enable-background="new 0 0 500 500" height="500px" id="Capa_1" version="1.1" viewBox="0 0 500 500" width="500px" xml:space="preserve" xmlns="http://www.w3.org/2000/svg" xmlns:xlink="http://www.w3.org/1999/xlink"><path d="M412.226,87.133L88.29,412.367c41.458,40.974,98.435,66.279,161.33,66.279  c126.765,0,229.527-102.764,229.527-229.527C479.146,185.895,453.58,128.644,412.226,87.133z" fill="#916E4F"/><path d="M249.619,19.592c-126.765,0-229.527,102.762-229.527,229.527c0,63.87,26.096,121.639,68.197,163.248  L412.226,87.133C370.665,45.414,313.159,19.592,249.619,19.592z" fill="#70543F"/><circle cx="249.062" cy="248.562" fill="none" r="243.438" stroke="#916E4F" stroke-miterlimit="10" stroke-width="5"/><path clip-rule="evenodd" d="M248.983,383.087c-32.205,0-64.41,0.021-96.616-0.007  c-21.798-0.02-37.321-15.395-37.335-37.105c-0.042-64.562-0.04-129.123-0.001-193.686c0.014-21.592,15.379-37.088,36.858-37.105  c65.164-0.052,130.328-0.043,195.492-0.002c17.786,0.012,31.616,10.667,35.837,27.743c0.96,3.882,1.183,8.028,1.188,12.053  c0.07,62.756,0.073,125.511,0.035,188.268c-0.013,21.275-11.031,35.545-30.303,39.341c-2.481,0.488-5.085,0.479-7.632,0.481  C313.997,383.097,281.491,383.087,248.983,383.087z M334.654,231.549c4.182,25.182-0.075,48.031-15.315,68.236  c-15.285,20.259-35.819,31.837-60.917,34.329c-22.812,2.265-43.978-3.354-62.022-17.862c-27.031-21.732-37.103-50.264-31.67-84.822  c-5.387,0-10.192,0.309-14.937-0.09c-4.402-0.37-5.229,1.428-5.214,5.406c0.134,33.096,0.07,66.189,0.079,99.284  c0.003,11.398,4.406,15.801,15.786,15.803c29.936,0.007,59.873,0.004,89.808,0.004c29.938,0,59.874-0.103,89.809,0.06  c9.267,0.05,14.56-6.117,14.48-13.924c-0.343-33.692-0.146-67.392-0.146-101.088c0-1.735,0-3.472,0-5.335  C347.568,231.549,341.449,231.549,334.654,231.549z M299.354,249.559c0.036-27.475-21.981-49.653-49.379-49.74  c-27.368-0.086-50.3,22.253-49.998,49.293c0.309,27.636,21.499,49.113,50.031,49.076  C280.566,298.146,299.771,273.22,299.354,249.559z M327.976,147.311c-5.112,0-10.226,0-15.342,0c-0.299,0-0.602,0.003-0.901,0.011  c-7.03,0.173-11.759,4.861-11.823,11.995c-0.089,10.376-0.096,20.755,0.007,31.131c0.065,6.699,4.593,11.485,11.217,11.588  c11.276,0.174,22.561,0.148,33.836-0.006c5.621-0.077,10.144-3.644,10.375-9.208c0.49-11.832,0.611-23.715,0.07-35.54  c-0.302-6.567-4.944-9.868-11.646-9.953C338.504,147.263,333.238,147.315,327.976,147.311z" fill="#FFFFFF" fill-rule="evenodd"/></svg>