<?xml version="1.0" ?><!DOCTYPE svg  PUBLIC '-//W3C//DTD SVG 1.1//EN'  'http://www.w3.org/Graphics/SVG/1.1/DTD/svg11.dtd'><svg enable-background="new 0 0 500 500" height="500px" id="Capa_1" version="1.1" viewBox="0 0 500 500" width="500px" xml:space="preserve" xmlns="http://www.w3.org/2000/svg" xmlns:xlink="http://www.w3.org/1999/xlink"><path d="M412.226,87.133L88.29,412.367c41.458,40.974,98.435,66.279,161.33,66.279  c126.765,0,229.527-102.764,229.527-229.527C479.146,185.895,453.58,128.644,412.226,87.133z" fill="#2D2D2D"/><path d="M249.619,19.592c-126.765,0-229.527,102.762-229.527,229.527c0,63.87,26.096,121.639,68.197,163.248L412.226,87.133  C370.665,45.414,313.159,19.592,249.619,19.592z"/><circle cx="249.062" cy="248.562" fill="none" r="243.438" stroke="#2D2D2D" stroke-miterlimit="10" stroke-width="5"/><path clip-rule="evenodd" d="M348.457,256.314c0-16.961,0-33.718,0-50.721  c11.616,0,22.991,0,34.543,0c0,28.654,0,57.227,0,85.983c-89.383,0-178.616,0-268,0c0-28.692,0-57.199,0-85.967  c11.394,0,22.771,0,34.485,0c0,16.841,0,33.671,0,50.704C215.953,256.314,282.086,256.314,348.457,256.314z" fill="#FFFFFF" fill-rule="evenodd"/></svg>