<?xml version="1.0" ?><!DOCTYPE svg  PUBLIC '-//W3C//DTD SVG 1.1//EN'  'http://www.w3.org/Graphics/SVG/1.1/DTD/svg11.dtd'><svg enable-background="new 0 0 500 500" height="500px" id="Capa_1" version="1.1" viewBox="0 0 500 500" width="500px" xml:space="preserve" xmlns="http://www.w3.org/2000/svg" xmlns:xlink="http://www.w3.org/1999/xlink"><path d="M412.226,87.133L88.29,412.367c41.458,40.974,98.435,66.279,161.33,66.279  c126.765,0,229.527-102.764,229.527-229.527C479.146,185.895,453.58,128.644,412.226,87.133z" fill="#52D152"/><path d="M249.619,19.592c-126.765,0-229.527,102.762-229.527,229.527c0,63.87,26.096,121.639,68.197,163.248  L412.226,87.133C370.665,45.414,313.159,19.592,249.619,19.592z" fill="#50B250"/><circle cx="249.062" cy="248.562" fill="none" r="243.438" stroke="#47A847" stroke-miterlimit="10" stroke-width="5"/><g><path clip-rule="evenodd" d="M115.145,383.849c3.288-9.726,6.397-18.945,9.525-28.162   c4.377-12.903,8.728-25.818,13.194-38.689c0.729-2.1,0.58-3.731-0.551-5.684c-12.814-22.106-18.566-46.024-17.184-71.476   c3.146-57.914,43.526-105.995,100.383-119.953c69.443-17.047,140.465,25.388,158.238,94.544   c14.543,56.597-10.673,116.609-61.752,145.054c-41.566,23.147-84.042,23.591-126.69,2.553c-2.222-1.098-3.99-0.731-6.036-0.078   c-22.094,7.049-44.196,14.071-66.298,21.098C117.246,383.287,116.502,383.471,115.145,383.849z M148.246,351.468   c1.072-0.271,1.702-0.394,2.312-0.587c12.153-3.864,24.324-7.679,36.441-11.65c2.491-0.817,4.388-0.672,6.704,0.776   c13.997,8.746,29.309,14.013,45.693,15.641c30.15,2.999,57.668-4.414,81.077-23.725c33.787-27.871,47.534-64.117,38.984-107.099   c-11.935-60.006-70.809-97.937-130.572-85.558c-77.452,16.043-113.185,104.913-68.23,169.773c1.009,1.456,1.103,2.643,0.535,4.243   c-2.324,6.557-4.541,13.15-6.769,19.741C152.392,339.027,150.396,345.042,148.246,351.468z" fill="#FFFFFF" fill-rule="evenodd"/><path clip-rule="evenodd" d="M210.46,187.328c0.908,0,1.697,0.098,2.454-0.017   c3.876-0.589,5.982,1.521,7.344,4.758c2.775,6.592,5.526,13.195,8.289,19.793c0.374,0.891,0.646,1.85,1.159,2.655   c2.814,4.423,1.369,8.318-1.5,11.97c-1.911,2.434-3.925,4.798-6.042,7.055c-1.773,1.891-2.134,3.782-0.805,6.027   c10.632,17.944,25.502,30.909,45.025,38.453c2.458,0.95,4.339,0.338,5.926-1.587c3.202-3.881,6.431-7.744,9.561-11.684   c2.553-3.216,3.743-3.887,7.407-2.228c8.98,4.066,17.871,8.339,26.685,12.751c1.079,0.539,2.055,2.421,2.098,3.712   c0.338,10.146-3.25,18.226-12.438,23.488c-9.168,5.253-18.613,7.153-28.926,3.97c-14.918-4.606-29.621-9.592-42.305-19.151   c-17.053-12.854-30.322-28.99-40.796-47.431c-5.981-10.528-8.302-21.832-4.54-33.806c2.03-6.465,5.917-11.696,10.873-16.187   C202.993,187.095,206.739,186.915,210.46,187.328z" fill="#FFFFFF" fill-rule="evenodd"/></g></svg>